<svg width="73" height="85" viewBox="0 0 73 85" fill="none" xmlns="http://www.w3.org/2000/svg">
<path fill-rule="evenodd" clip-rule="evenodd" d="M24.2857 0H48.5714V8.09524H24.2857V0ZM32.381 52.619V28.3333H40.4762V52.619H32.381ZM64.8833 25.8643L70.631 20.1167C68.8905 18.0524 66.9881 16.1095 64.9238 14.4095L59.1762 20.1571C52.9024 15.1381 45.0095 12.1429 36.4286 12.1429C16.3119 12.1429 0 28.4548 0 48.5714C0 68.6881 16.2714 85 36.4286 85C56.5857 85 72.8571 68.6881 72.8571 48.5714C72.8571 39.9905 69.8619 32.0976 64.8833 25.8643ZM8.09524 48.5714C8.09524 64.2357 20.7643 76.9048 36.4286 76.9048C52.0929 76.9048 64.7619 64.2357 64.7619 48.5714C64.7619 32.9071 52.0929 20.2381 36.4286 20.2381C20.7643 20.2381 8.09524 32.9071 8.09524 48.5714Z" fill="#D4D6DB"/>
</svg>
