<svg xmlns="http://www.w3.org/2000/svg" width="263" height="246" viewBox="0 0 263 246">
    <g fill="none" fill-rule="evenodd">
        <path fill="#00818C" fill-rule="nonzero" d="M20.193 246c-4.395 0-8.495-1.493-11.854-4.32-6.38-5.369-9.252-12.37-8.084-19.716.894-5.653 3.582-22.656 61.918-46.873 20.117-33.63 39.155-75.177 49.567-108.1-15.95-24.99-20.877-42.937-15.059-54.781C99.169 7.149 104.705.93 116.929.063A25.5 25.5 0 0 1 118.7 0c6.573 0 12.264 2.78 16.022 7.824 4.676 6.279 9.537 18.88-.865 55.868 17.59 25.42 44.231 54.487 68.335 74.545 7.562-.775 14.468-1.167 20.585-1.167 18.923 0 30.492 3.613 36.41 11.366 3.68 4.827 4.742 11.006 2.99 17.392-2.722 9.902-10.375 15.812-20.485 15.812-11.254 0-26.576-7.504-45.58-22.311-35.797 4.727-83.021 17.297-120.12 32C42.18 245.997 25.676 246 20.193 246zm.066-20.978c.073.115.226.331.52.63 2.58-.717 8.79-4.926 18.55-16.994-14.286 8.426-18.744 14.279-19.07 16.364zM126.158 87.476c-8.768 24.31-21.03 51.524-34.463 76.543 27.454-9.336 57.633-17.229 84.183-21.993-17.573-16.267-35.408-35.828-49.72-54.55zm103.903 70.083c5.331 2.703 9.229 3.844 11.63 3.844.287-.002.5-.018.642-.04.081-.17.2-.454.32-.89.006-.019.009-.037.014-.056-1.091-.68-4.429-2.248-12.606-2.858zM118.655 20.24c-.095 0-.19.006-.292.014-2.712.192-3.488.844-3.498.849-.663.962-.979 6.052 3.997 17.063 1.828-12.15.337-16.74-.207-17.926z"/>
        <text fill="#D4D6DB" font-family="HelveticaNeue-Bold, Helvetica Neue" font-size="32" font-weight="bold">
            <tspan x="124.036" y="217">.PDF</tspan>
        </text>
    </g>
</svg>
