<svg xmlns="http://www.w3.org/2000/svg" width="130" height="169" viewBox="0 0 130 169">
    <path fill="#EAF3FF" fill-rule="nonzero" d="M77.188 0C108.956 24.8 130 62.91 130 105.615 130 140.635 100.912 169 65 169c-35.913 0-65-28.365-65-63.385 0-26.78 9.831-51.42 26.244-70.436L26 38.03c0 16.322 12.675 29.553 29.494 29.553 16.737 0 27.706-13.231 27.706-29.553C83.2 20.996 77.187 0 77.187 0zm-16.09 149C82.574 149 100 131.489 100 109.905c0-11.321-1.62-22.398-4.782-32.905-8.267 11.158-23.098 18.081-37.444 21.014C43.51 100.946 35 110.23 35 123.425 35 137.597 46.67 149 61.097 149z"/>
</svg>
