<?xml version="1.0" encoding="UTF-8"?>
<svg width="184px" height="184px" viewBox="0 0 184 184" version="1.1" xmlns="http://www.w3.org/2000/svg" xmlns:xlink="http://www.w3.org/1999/xlink">
    <!-- Generator: Sketch 53.2 (72643) - https://sketchapp.com -->
    <title>noun_Folder_2309441</title>
    <desc>Created with Sketch.</desc>
    <g id="Main-Flow" stroke="none" stroke-width="1" fill="none" fill-rule="evenodd">
        <g id="noun_Folder_2309441" fill="#526480" fill-rule="nonzero">
            <g id="Group">
                <path d="M180.164837,83 L38.2960769,83 C36.6861759,83 35.2678908,83.9985149 34.6928092,85.5347274 L0.231895235,178.815458 C-0.189706716,180.005941 -0.0364605126,181.311745 0.691866906,182.348466 C1.42019432,183.385421 2.6084938,184 3.83516299,184 L145.703923,184 C147.313824,184 148.770479,183.001485 149.307191,181.503713 L183.768105,88.1845416 C184.189707,86.9940587 184.036461,85.6882548 183.308133,84.651534 C182.579806,83.6145789 181.429642,83 180.164837,83 Z" id="Path"></path>
                <path d="M180.169692,0 L94.8303084,0 C92.7236855,0 91,1.71301643 91,3.80711605 L91,56.0025282 L145.773363,56.0025282 C152.131806,56.0025282 157.264288,61.1422742 157.264288,67.4238764 L157.264288,75 L184,75 L184,3.80711605 C184,1.71301643 182.276314,0 180.169692,0 Z M159.222222,45 L115.777778,45 C113.691515,45 112,43.4345704 112,41.5 C112,39.5654296 113.691515,38 115.777778,38 L159.222222,38 C161.308485,38 163,39.5654296 163,41.5 C163,43.4345704 161.308485,45 159.222222,45 Z M162.214286,22 L116.785714,22 C114.695068,22 113,20.4345704 113,18.5 C113,16.5654296 114.695068,15 116.785714,15 L162.214286,15 C164.304932,15 166,16.5654296 166,18.5 C166,20.4345704 164.304932,22 162.214286,22 Z" id="Shape"></path>
                <path d="M38.3981529,76.2984668 L150,76.2984668 L150,68.696629 C150,66.58127 148.278775,64.8695485 146.155868,64.8695485 L71.3435692,64.8695485 L57.7933779,45.6294993 C57.0744802,44.6091935 55.8994669,44 54.6456189,44 L3.84413244,44 C1.72122529,44 0,45.7117214 0,47.8270805 L0,158 L27.5752683,83.8218185 C29.3040019,79.2397875 33.5479391,76.2984668 38.3981529,76.2984668 Z" id="Path"></path>
            </g>
        </g>
    </g>
</svg>