<svg xmlns="http://www.w3.org/2000/svg" xmlns:xlink="http://www.w3.org/1999/xlink" width="64" height="64" viewBox="0 0 64 64">

    <g fill="none" fill-rule="evenodd">
        <path fill="#23C982" fill-rule="nonzero" d="M32 0C14.327 0 0 14.327 0 32c0 17.673 14.327 32 32 32 17.673 0 32-14.327 32-32A31.993 31.993 0 0 0 32 0zm17.922 23.761L27.829 50.627 14.386 37.61a2.765 2.765 0 0 1-.93-2.803c.258-1.029 1.09-1.831 2.154-2.076a2.967 2.967 0 0 1 2.89.915l8.838 8.532 18.034-21.926a2.954 2.954 0 0 1 2.739-1.122c1.057.14 1.95.828 2.327 1.794.378.965.18 2.054-.516 2.836z"/>
    </g>
</svg>
