<?xml version="1.0" encoding="UTF-8"?>
<svg width="20px" height="20px" viewBox="0 0 20 20" version="1.1" xmlns="http://www.w3.org/2000/svg" xmlns:xlink="http://www.w3.org/1999/xlink">
    <!-- Generator: Sketch 54.1 (76490) - https://sketchapp.com -->
    <title>Shape</title>
    <desc>Created with Sketch.</desc>
    <g id="Main-Flow" stroke="none" stroke-width="1" fill="none" fill-rule="evenodd">
        <g id="God-Page-Unfilled-Copy" transform="translate(-334.000000, -88.000000)" fill="#15DEEC" fill-rule="nonzero">
            <g id="Group" transform="translate(334.000000, 88.000000)">
                <path d="M8.94873319,0.0751556239 C4.44801839,0.613802236 0.995765558,3.84568191 0.177453776,8.10355513 C-0.845435952,13.5156711 2.65796136,18.7995379 8.00256019,19.9024809 C8.28385487,19.9537806 11.1735183,20.2359288 13.347159,19.5177333 C17.029562,18.0813424 19.2799194,15.439409 19.9447978,11.4893338 C19.97037,11.4123843 20.3028092,8.18050465 18.9730525,5.5642211 C17.2085677,1.94759385 13.3215868,-0.463490988 8.94873319,0.0751556239 Z M9.97493734,16.1904762 C9.17293233,16.1904762 8.57142857,15.583805 8.57142857,14.8001879 C8.57142857,13.940737 9.14786967,13.3340658 9.97493734,13.3340658 C10.802005,13.3087878 11.4285714,13.940737 11.4285714,14.77491 C11.4285714,15.583805 10.8270677,16.1904762 9.97493734,16.1904762 Z M13.2971537,8.98966408 C12.9479552,9.27943525 12.5987568,9.54505882 12.2246156,9.7865348 C11.6758752,10.1487488 11.3516195,10.7041435 11.3516195,11.4285714 C10.6282799,11.4285714 9.8550548,11.4285714 9.10677244,11.4285714 C9.00700146,10.6558483 9.05688695,9.7865348 9.78022657,9.23114006 C10.2042532,8.91722129 10.6532227,8.65159772 11.0024211,8.31353135 C11.3266768,7.97546499 11.6509325,7.56495583 11.800589,7.15444667 C11.9751882,6.62319953 11.5511615,5.99536199 11.0772493,5.82632881 C10.3788525,5.58485284 9.53079911,5.77803362 9.23148617,6.33342836 C9.05688695,6.64734713 8.95711596,7.03370869 8.80745949,7.42007025 C8.10906262,7.42007025 7.41066574,7.42007025 6.71226887,7.42007025 C6.48778416,6.33342836 7.1113528,5.0053105 8.15894811,4.35332536 C9.60562735,3.48401186 12.0749592,3.67719263 13.3470392,4.78798212 C14.6191192,5.87462401 14.5941764,7.9030222 13.2971537,8.98966408 Z" id="Shape"></path>
            </g>
        </g>
    </g>
</svg>