<svg width="738px" height="958px" viewBox="0 0 369 479" version="1.1" xmlns="http://www.w3.org/2000/svg" xmlns:xlink="http://www.w3.org/1999/xlink">
    <defs>
        <linearGradient  y1="13.5637782%" y2="96.4991621%" id="linearGradient-1">
            <stop stop-color="#15DEEC" offset="20%"></stop>
            <stop stop-color="#246BA6" offset="90%"></stop>
            <animate attributeName="y2" dur="3000ms" values="90%;80%;70%;50%;30%;20%;10%;20%;30%;50%;70%;80%;90%" repeatCount="indefinite"></animate>
        </linearGradient>
    </defs>
    <g id="Main-Flow" stroke="none" stroke-width="1" fill="none" fill-rule="evenodd">
        <g id="Empty-Screen-Copy" transform="translate(-641.000000, -223.000000)" fill="url(#linearGradient-1)" fill-rule="nonzero">
            <g id="Logo" transform="translate(641.000000, 223.000000)">
                <path d="M219.09375,0 C309.268125,70.2892638 369,178.305673 369,299.346929 C369,398.605252 286.43625,479 184.5,479 C82.56375,479 0,398.605252 0,299.346929 C0,223.443506 27.905625,153.603376 74.491875,99.7074541 L73.8,107.791842 C73.8,154.052508 109.7775,191.555087 157.516875,191.555087 C205.025625,191.555087 236.16,154.052508 236.16,107.791842 C236.16,59.5100797 219.09375,0 219.09375,0 Z M173.422214,422.313609 C234.385433,422.313609 283.846154,372.680956 283.846154,311.505822 C283.846154,279.417736 279.245161,248.022196 270.273208,218.242604 C246.808129,249.868993 204.708996,269.491205 163.990166,277.801789 C123.501389,286.112371 99.3461538,312.429221 99.3461538,349.826848 C99.3461538,389.994672 132.473333,422.313609 173.422214,422.313609 Z" id="Combined-Shape"></path>
            </g>
        </g>
    </g>
</svg>