<svg xmlns="http://www.w3.org/2000/svg" width="131" height="131" viewBox="0 0 131 131">
    <g fill="#EAF3FF" fill-rule="nonzero">
        <circle cx="115" cy="90" r="2"/>
        <path d="M130.947 89.045c-.32-3.59-2.471-6.813-5.776-8.657L83.978 54.464 99.411 2.598c.286-.959-.206-1.97-1.165-2.399-.959-.428-2.108-.148-2.722.664L65.58 40.384l-3.26-15.905c-.39-1.896-1.983-3.374-4.013-3.72-2.029-.344-4.076.514-5.152 2.161l-6.303 9.65c-9.64-2.866-15.904.325-19.526 3.633-3.753 3.73-6.303 8.38-7.356 13.409C9.796 54.552 5.977 64.614 6.31 74.458c-3.52 4.967-11.923 19.617-.578 33.365 4.053 4.915-2.386 11.55-2.448 11.613-.65.65-.776 1.62-.31 2.397.464.777 1.412 1.183 2.344 1.004 5.38-1.024 14.849-6.29 12.166-18.89-.153-.717-.702-1.303-1.441-1.538a2.299 2.299 0 0 0-2.143.4c-.587.482-.854 1.22-.702 1.938 1.127 5.299-.397 8.657-2.482 10.758 1.397-3.415.82-7.262-1.526-10.185-7.209-8.735-4.875-18.038-1.975-23.962.208.906.44 1.801.713 2.674 2.963 9.493 9.074 15.554 15.49 15.554.424 0 .849-.027 1.27-.08.916-.115 1.656-.757 1.848-1.604.192-.846-.205-1.715-.992-2.168-.07-.04-7.061-4.228-3.52-15.198.349-1.082-.305-2.224-1.46-2.55-1.155-.327-2.375.285-2.724 1.367a18.612 18.612 0 0 0 .126 13.64c-2.802-2.87-4.808-6.341-5.842-10.108-2.979-9.546-1.811-21.609 6.914-27.906a36.01 36.01 0 0 0 1.782 15.902c2.322 6.137 6.37 9.753 11.396 10.187a2.246 2.246 0 0 0 1.9-.753c.415-.481.575-1.112.437-1.716-1.41-6.155-3.246-23.113 5.09-27.617.317-.17.582-.413.773-.705l16.472-25.222a.638.638 0 0 1 .641-.268c.252.044.45.228.498.464l4.022 19.615.002.005c.11.53.44.997.917 1.3l.009.008 59.877 37.677c2.146 1.158 3.545 3.233 3.74 5.545.234 2.276-.743 4.515-2.613 5.985-6.348 5.017-12.66 7.202-18.736 6.532-4.53-.684-4.301-1.92-8.461-3.404-1.75-.624-8.537-1.418-11.135-.978-1.543.597-.46 3.007.47 3.698.931.692 3.422-.525 5.31 0 4.115 2.441 2.872 1.306 7.983 3.114-1.485 1.768-3.868 2.808-6.02 1.808l-14.34-6.748-.748.146c-7.741 1.507-13.822.627-18.097-2.615-6.974-5.29-7.093-15.31-7.093-15.41-.004-1.127-.982-2.04-2.186-2.04-1.21 0-2.186.916-2.185 2.045 0 .487.098 12.027 8.687 18.565 4.069 2.964 9.134 4.47 14.283 4.249v24.605c0 1.13.979 2.047 2.186 2.047 1.207 0 2.186-.916 2.186-2.047V104.04c.776-.097 1.551-.193 2.356-.338l12.988 6.113c4.273 2.008 9.474.71 12.113-3.024l.632-.892c.169.022.328.058.499.078.921.106 1.849.16 2.777.158 6.446 0 12.943-2.555 19.35-7.62 2.964-2.323 4.516-5.865 4.148-9.469zm-93.75-41.524c-9.602 5.678-8.466 21.293-7.401 28.321-2.263-1.664-3.925-3.928-4.764-6.49-3.421-8.946-2.002-23.645 5.504-30.431 2.493-2.33 5.898-3.624 9.438-3.585 1.637.013 3.265.227 4.842.635l-7.62 11.55zm30.889-3.286l4.954-6.314 9.697 6.17-2.348 7.62-12.303-7.476zM80.4 27.579l5.783 3.856-2.668 9.072-8.536-5.691 5.421-7.237zm7.573 0l-4.375-2.964 8.618-11.687-4.243 14.65zm-24.55 35.108L59.362 57h3.13l2.45 3.69L67.507 57H70.5l-3.992 5.547L71 69h-3.108l-2.971-4.433L62.04 69H59l4.423-6.313z"/>
    </g>
</svg>
