<?xml version="1.0" encoding="UTF-8"?>
<svg width="150px" height="175px" viewBox="0 0 150 175" version="1.1" xmlns="http://www.w3.org/2000/svg" xmlns:xlink="http://www.w3.org/1999/xlink">
    <!-- Generator: Sketch 54 (76480) - https://sketchapp.com -->
    <title>noun_PDF_631167</title>
    <desc>Created with Sketch.</desc>
    <g id="Main-Flow" stroke="none" stroke-width="1" fill="none" fill-rule="evenodd">
        <g id="God-Page-Copy-2" transform="translate(-257.000000, -577.000000)" fill-rule="nonzero">
            <g id="noun_PDF_631167" transform="translate(257.000000, 577.000000)">
                <path d="M3.35195531,95.4530307 C5.87475244,95.0194825 9.41740374,94.6927374 14.4084269,94.6927374 C19.4540211,94.6927374 23.050349,95.6702574 25.4648984,97.6243921 C27.7729894,99.4708186 29.3296089,102.511087 29.3296089,106.094421 C29.3296089,109.679566 28.1487252,112.719834 26.0016638,114.784392 C23.210484,117.445419 19.0773908,118.64107 14.2465027,118.64107 C13.172972,118.64107 12.2067943,118.585859 11.4553228,118.477245 L11.4553228,131.564246 L3.35195531,131.564246 L3.35195531,95.4530307 Z M11.4571121,112.069964 C12.154907,112.233789 13.0137316,112.286286 14.1946153,112.286286 C18.5424147,112.286286 21.2262414,110.060618 21.2262414,106.312553 C21.2262414,102.946445 18.9181504,100.938004 14.8387338,100.938004 C13.1747612,100.938004 12.0475539,101.101829 11.4571121,101.262033 L11.4571121,112.069964 Z" id="Shape" fill="#D4D6DB"></path>
                <path d="M35.1955307,96.2832609 C38.1876282,95.7985927 42.088041,95.5307263 46.2012845,95.5307263 C53.0403644,95.5307263 57.4750803,96.7661372 60.9489411,99.4000084 C64.6890629,102.193345 67.0391061,106.657488 67.0391061,113.05224 C67.0391061,119.984518 64.5278815,124.768488 61.0549112,127.72577 C57.2613591,130.89627 51.4917759,132.402235 44.4389747,132.402235 C40.21798,132.402235 37.2258826,132.133472 35.1964212,131.863814 L35.1964212,96.2832609 L35.1955307,96.2832609 Z M43.3703685,125.845329 C44.0649625,126.006586 45.1869991,126.006586 46.202175,126.006586 C53.575558,126.062131 58.3842861,121.975151 58.3842861,113.322795 C58.4377164,105.79924 54.0564308,101.819766 47.05706,101.819766 C45.2404294,101.819766 44.0649625,101.982815 43.3703685,102.141384 L43.3703685,125.845329 Z" id="Shape" fill="#D4D6DB"></path>
                <polygon id="Path" fill="#D4D6DB" points="72.9059093 95.5307263 94.6927374 95.5307263 94.6927374 102.213831 80.9964221 102.213831 80.9964221 110.447416 93.7936936 110.447416 93.7936936 117.076165 80.9964221 117.076165 80.9964221 131.564246 72.9050279 131.564246"></polygon>
                <path d="M100.420154,40.2234637 L126.536313,40.2234637 C118.700211,29.2293669 103.366758,11.8077176 94.6927374,4.18994413 L94.6927377,33.6553058 C94.6918415,37.2770171 97.2611582,40.2234637 100.420154,40.2234637 Z" id="Path" fill="#6C7F9C"></path>
                <path d="M130.64204,71.7686904 L130.64204,49.2727934 L99.6212755,49.2727934 C91.9762969,49.2727934 85.7524312,42.1195381 85.7524312,33.3267893 L85.7524312,0 L9.79815297,0 C4.38609591,0 0,5.04328292 0,11.2672525 L0,45.9462199 L0.0206088266,45.9462199 L0.0206088266,78.9506772 L142.829024,78.9506772 L142.829024,146.547009 L0.0215048625,146.547009 L0.0215048625,163.504902 C0.236553487,169.507998 4.52408545,174.301676 9.79904901,174.301676 L120.846575,174.301676 C126.257736,174.301676 130.643832,169.256597 130.643832,163.034423 L130.643832,153.729894 L150,153.729894 L150,71.7686904 L130.64204,71.7686904 Z" id="Path" fill="#6C7F9C"></path>
            </g>
        </g>
    </g>
</svg>