<svg xmlns="http://www.w3.org/2000/svg" width="143" height="167" viewBox="0 0 143 167">
    <path fill="#EAF3FF" fill-rule="nonzero" d="M134.845 83.311a20.842 20.842 0 0 0-4.7-3.986l-25.82-21.907L143 0 90.798 45.943l-2.712-2.303 2.28-10.714s1.43-6.724 1.42-6.744l-.008.002c-2.41-4.31-12.479-3.951-22.993.942-7.794 3.629-13.674 8.747-15.64 13.106-21.623 6.904-41.47 29.823-49.544 60.434C-2.957 125.539-.256 149.83 9.251 167h107.114c.393-1.984.609-4.031.609-6.13 0-5.092-1.236-10.224-3.657-14.713a32.587 32.587 0 0 0-4.236-6.104c-2.08-2.351-4.58-4.274-6.857-6.423-4.655-4.392-10.978-9.526-13.264-15.688-1.633-4.4-1.586-9.08-.679-13.672 0 0 13.926 4.771 13.936 4.764 3.774 5.294 9.955 8.761 16.958 8.761 11.502 0 20.825-9.315 20.825-20.808 0-5.21-1.929-9.96-5.086-13.617l-.069-.059z"/>
</svg>
