<svg xmlns="http://www.w3.org/2000/svg" width="16" height="20" viewBox="0 0 16 20">
    <g fill="none" fill-rule="evenodd">
        <path fill="#6C7F9C" fill-rule="nonzero" d="M15.088 10.242a2.327 2.327 0 0 0-.526-.442l-2.89-2.43L16 1l-5.84 5.097-.304-.256.255-1.188s.16-.746.159-.748h-.001c-.27-.478-1.396-.439-2.573.104-.872.403-1.53.97-1.75 1.454-2.42.766-4.64 3.309-5.543 6.704-.734 2.76-.432 5.455.632 7.36H13.02a3.434 3.434 0 0 0-.341-2.312 3.614 3.614 0 0 0-.474-.678c-.233-.26-.512-.474-.767-.713-.521-.487-1.229-1.056-1.484-1.74-.183-.488-.178-1.007-.076-1.517 0 0 1.558.53 1.559.529a2.332 2.332 0 0 0 1.897.972 2.32 2.32 0 0 0 2.33-2.309c0-.578-.215-1.105-.569-1.51l-.007-.007z"/>
    </g>
</svg>
