<?xml version="1.0" encoding="UTF-8"?>
<svg width="244px" height="320px" viewBox="0 0 244 320" version="1.1" xmlns="http://www.w3.org/2000/svg" xmlns:xlink="http://www.w3.org/1999/xlink">
    <!-- Generator: Sketch 53.2 (72643) - https://sketchapp.com -->
    <title>Shape</title>
    <desc>Created with Sketch.</desc>
    <g id="Main-Flow" stroke="none" stroke-width="1" fill="none" fill-rule="evenodd">
        <g id="Upload-Message-Flame" transform="translate(-1092.000000, -244.000000)" fill="#3E4C61" fill-rule="nonzero">
            <path d="M1236.875,244 C1236.875,244 1248.16,283.756212 1248.16,316.011252 C1248.16,346.916081 1227.5725,371.969995 1196.1575,371.969995 C1164.59,371.969995 1140.8,346.916081 1140.8,316.011252 L1141.2575,310.610408 C1110.4525,346.616034 1092,393.273324 1092,443.981247 C1092,510.291608 1146.595,564 1214,564 C1281.405,564 1336,510.291608 1336,443.981247 C1336,363.118612 1296.5025,290.957337 1236.875,244 Z M1209.5775,518.992968 C1182.4325,518.992968 1160.4725,497.989686 1160.4725,471.885607 C1160.4725,447.58181 1176.485,430.479137 1203.325,425.078293 C1230.3175,419.67745 1258.225,406.925457 1273.78,386.372246 C1279.7275,405.72527 1282.7775,426.128458 1282.7775,446.981716 C1282.7775,486.737928 1249.99,518.992968 1209.5775,518.992968 Z" id="Shape"></path>
        </g>
    </g>
</svg>