<?xml version="1.0" encoding="UTF-8"?>
<svg width="85px" height="85px" viewBox="0 0 85 85" version="1.1" xmlns="http://www.w3.org/2000/svg" xmlns:xlink="http://www.w3.org/1999/xlink">
    <!-- Generator: Sketch 54.1 (76490) - https://sketchapp.com -->
    <title>Shape</title>
    <desc>Created with Sketch.</desc>
    <g id="Main-Flow" stroke="none" stroke-width="1" fill="none" fill-rule="evenodd">
        <g id="METRICS-Dashboard" transform="translate(-209.000000, -507.000000)" fill="#D4D6DB" fill-rule="nonzero">
            <g id="Group-8" transform="translate(182.000000, 178.000000)">
                <g id="baseline-face-24px" transform="translate(27.000000, 329.000000)">
                    <path d="M29.75,41.4375 C26.8175,41.4375 24.4375,43.8175 24.4375,46.75 C24.4375,49.6825 26.8175,52.0625 29.75,52.0625 C32.6825,52.0625 35.0625,49.6825 35.0625,46.75 C35.0625,43.8175 32.6825,41.4375 29.75,41.4375 Z M55.25,41.4375 C52.3175,41.4375 49.9375,43.8175 49.9375,46.75 C49.9375,49.6825 52.3175,52.0625 55.25,52.0625 C58.1825,52.0625 60.5625,49.6825 60.5625,46.75 C60.5625,43.8175 58.1825,41.4375 55.25,41.4375 Z M42.5,0 C19.04,0 0,19.04 0,42.5 C0,65.96 19.04,85 42.5,85 C65.96,85 85,65.96 85,42.5 C85,19.04 65.96,0 42.5,0 Z M42.5,76.5 C23.7575,76.5 8.5,61.2425 8.5,42.5 C8.5,41.2675 8.585,40.035 8.7125,38.845 C18.7425,34.3825 26.69,26.18 30.855,16.0225 C38.5475,26.9025 51.2125,34 65.535,34 C68.85,34 72.0375,33.6175 75.0975,32.895 C75.99,35.9125 76.5,39.1425 76.5,42.5 C76.5,61.2425 61.2425,76.5 42.5,76.5 Z" id="Shape"></path>
                </g>
            </g>
        </g>
    </g>
</svg>